# xmcd
#
# Track frame offsets:
#	150
#	9626
#	21259
#	36784
#	49871
#	64044
#	78759
#	89439
#	100962
#	112733
#	127772
#	143848
#	154803
#	165595
#
# Disc length: 2367 seconds
#
# Revision: 1
# Processed by: cddbd v1.4b41PL1 Copyright (c) Steve Scherf et al.
# Submitted via: audiograbber 1.80
#
DISCID=a5093d0e
DTITLE=Dead Ringer Band - Red Desert Sky
DYEAR=1900
DGENRE=
TTITLE0=Road To Nowhere
TTITLE1=Born In The Country
TTITLE2=Power Of The Land
TTITLE3=Ashes Of Love
TTITLE4=Wish You Were Here
TTITLE5=Too Many Blues In This Room
TTITLE6=Wild Turkey
TTITLE7=Red Desert Sky
TTITLE8=Baby Don't Go
TTITLE9=Northern Highway
TTITLE10=Sweetest Gift
TTITLE11=Last Days On The Road
TTITLE12=Won't Be Needing You
TTITLE13=Itchy Twichy Spot
EXTD=
EXTT0=
EXTT1=
EXTT2=
EXTT3=
EXTT4=
EXTT5=
EXTT6=
EXTT7=
EXTT8=
EXTT9=
EXTT10=
EXTT11=
EXTT12=
EXTT13=
PLAYORDER=
